<?xml version="1.0" encoding="utf-8"?>
<svg viewBox="147.333 134.33 223.294 189.046" xmlns="http://www.w3.org/2000/svg">
  <path stroke-width="0" d="M 195.269 134.809 C 205.372 133.853 223.804 134.373 238.722 135.968 C 253.93 137.593 270.117 140.972 284.492 145.817 C 298.457 150.523 312.899 157.321 323.89 164.357 C 333.563 170.55 340.105 177.722 347.355 186.084 C 355.203 195.135 364.164 207.641 367.632 217.37 C 370.348 224.988 370.885 231.18 370.529 238.227 C 370.164 245.466 368.452 254.038 366.474 260.244 C 364.799 265.498 363.422 268.375 360.101 273.569 C 355.521 280.732 346.083 292.976 339.533 299.351 C 334.318 304.427 329.919 307.286 324.469 310.359 C 318.925 313.486 313.164 316.251 307.088 317.891 C 301.185 319.485 296.95 321.117 289.707 322.526 C 279.957 324.422 263.229 322.927 252.047 320.209 C 241.299 317.597 231.403 311.26 222.499 305.145 C 213.768 299.148 204.535 289.672 199.035 283.998 C 195.207 280.049 194.884 278.84 190.923 274.149 C 184.64 266.708 177.298 248.523 173.832 240.834 C 172.612 238.128 167.097 229.772 165.431 227.799 C 162.174 223.941 153.748 211.358 150.947 205.782 C 149.111 202.128 148.577 200.499 148.05 197.092 C 147.417 193 146.817 188.031 148.05 182.607 C 149.593 175.816 152.894 164.688 156.74 158.273 C 160.041 152.77 165.26 147.579 169.197 144.079 C 172.761 140.91 176.062 139.347 180.205 137.706 C 184.364 136.059 188.98 135.404 195.269 134.809 Z" style="stroke-width: 2px; fill: rgb(161, 195, 209);"/>
</svg>